<?xml version="1.0" standalone="no"?>
<!DOCTYPE svg PUBLIC "-//W3C//DTD SVG 20010904//EN"
 "http://www.w3.org/TR/2001/REC-SVG-20010904/DTD/svg10.dtd">
<svg version="1.0" xmlns="http://www.w3.org/2000/svg"
 width="2136.000000pt" height="800.000000pt" viewBox="0 0 2136.000000 800.000000"
 preserveAspectRatio="xMidYMid meet">

<g transform="translate(0.000000,800.000000) scale(0.100000,-0.100000)"
fill="#000000" stroke="none">
<path d="M2950 5883 c0 -4 41 -49 90 -98 50 -49 90 -95 90 -101 0 -7 -28 -52
-63 -100 -277 -390 -288 -412 -269 -516 21 -114 133 -239 276 -308 93 -45 237
-80 330 -80 l63 0 91 113 c50 61 132 163 182 225 50 61 97 112 105 112 7 0 48
-25 91 -56 79 -57 104 -71 104 -60 0 8 -78 218 -160 431 -34 88 -70 183 -80
211 -28 80 -49 113 -73 119 -25 6 -457 69 -619 90 -59 8 -119 17 -133 21 -14
3 -25 2 -25 -3z"/>
<path d="M7985 5083 c-331 -52 -622 -269 -779 -581 -261 -519 -93 -1183 376
-1489 311 -204 732 -216 1054 -32 164 94 283 219 364 384 75 154 93 131 -156
200 -119 33 -222 61 -229 63 -7 2 -28 -23 -46 -55 -48 -85 -143 -174 -231
-217 -385 -188 -794 165 -764 659 7 125 26 197 79 305 48 99 158 218 243 262
139 74 329 77 466 7 49 -25 135 -104 173 -159 l28 -40 224 0 223 0 -2 243 -3
242 -159 3 -159 3 -77 58 c-150 113 -239 142 -450 146 -80 2 -158 1 -175 -2z"/>
<path d="M12385 5083 c-331 -52 -622 -269 -779 -581 -261 -519 -93 -1183 376
-1489 311 -204 732 -216 1054 -32 164 94 283 219 364 384 75 154 93 131 -156
200 -119 33 -222 61 -229 63 -7 2 -28 -23 -46 -55 -48 -85 -143 -174 -231
-217 -385 -188 -794 165 -764 659 7 125 26 197 79 305 48 99 158 218 243 262
139 74 329 77 466 7 49 -25 135 -104 173 -159 l28 -40 224 0 223 0 -2 243 -3
242 -159 3 -159 3 -77 58 c-150 113 -239 142 -450 146 -80 2 -158 1 -175 -2z"/>
<path d="M2687 5027 c-16 -23 -45 -63 -65 -88 -147 -182 -195 -246 -254 -339
-65 -100 -67 -105 -45 -111 20 -5 317 -19 423 -19 l42 0 80 -137 c43 -76 98
-173 122 -215 23 -43 45 -78 48 -78 4 1 59 73 122 162 63 88 157 217 208 286
50 70 92 129 92 132 0 3 -51 5 -113 6 -92 1 -126 6 -192 27 -132 43 -250 125
-325 224 -40 53 -100 161 -100 182 0 22 -15 10 -43 -32z"/>
<path d="M5160 4855 l0 -195 110 0 110 0 0 -690 0 -690 -110 0 -110 0 0 -195
0 -195 450 0 450 0 0 195 0 195 -100 0 -100 0 0 204 0 204 238 5 c204 4 248 8
317 27 192 52 356 179 428 330 58 123 71 186 71 345 0 124 -2 147 -23 200 -70
177 -216 320 -403 394 -147 59 -174 61 -778 61 l-550 0 0 -195z m1047 -220
c72 -22 132 -70 165 -134 24 -45 28 -65 28 -131 0 -123 -32 -187 -117 -237
-65 -38 -147 -53 -295 -53 l-128 0 0 292 0 291 148 -6 c88 -4 168 -12 199 -22z"/>
<path d="M9270 4855 l0 -195 98 0 97 -1 303 -435 302 -435 0 -254 0 -255 -120
0 -120 0 0 -195 0 -195 485 0 485 0 0 195 0 195 -135 0 -135 0 1 253 0 252
322 435 322 435 83 3 82 3 0 194 0 195 -465 0 -465 0 0 -195 0 -195 101 0 c55
0 99 -4 97 -8 -8 -21 -294 -481 -298 -481 -6 0 -280 472 -280 482 0 4 38 7 85
7 l85 0 0 195 0 195 -465 0 -465 0 0 -195z"/>
<path d="M13770 4855 l0 -195 110 0 110 0 0 -690 0 -690 -110 0 -110 0 0 -195
0 -195 865 0 865 0 0 400 0 400 -232 -2 -233 -3 -5 -165 c-8 -251 7 -240 -317
-240 l-243 0 0 690 0 690 115 0 115 0 0 195 0 195 -465 0 -465 0 0 -195z"/>
<path d="M15680 4835 l0 -215 115 0 115 0 0 -670 0 -670 -115 0 -115 0 0 -195
0 -195 860 0 860 0 0 390 0 390 -232 -2 -233 -3 -3 -192 -2 -193 -275 0 -275
0 0 250 0 250 215 0 215 0 0 210 0 210 -215 0 -215 0 0 210 0 210 275 0 275 0
0 -155 0 -155 235 0 235 0 0 370 0 370 -860 0 -860 0 0 -215z"/>
<path d="M17600 4856 l0 -196 90 0 90 0 0 -690 0 -690 -90 0 -90 0 0 -196 0
-195 508 3 c492 4 509 5 587 27 44 12 111 35 148 51 329 138 566 440 638 810
19 98 16 309 -5 410 -86 408 -368 711 -768 827 l-93 27 -507 4 -508 3 0 -195z
m895 -205 c178 -27 326 -142 415 -326 50 -104 69 -177 77 -302 7 -125 -8 -228
-51 -343 -40 -107 -90 -182 -171 -259 -112 -104 -219 -141 -412 -141 l-103 0
0 690 0 690 93 0 c50 0 119 -4 152 -9z"/>
<path d="M1955 4391 l-50 -6 70 -49 c117 -82 136 -98 142 -111 2 -8 -52 -127
-121 -265 -125 -249 -126 -251 -126 -321 0 -90 27 -146 107 -220 119 -110 234
-148 463 -156 80 -2 150 -1 156 4 6 4 68 105 139 223 161 270 167 280 183 280
7 0 53 -20 102 -45 49 -25 94 -45 100 -45 13 0 -27 76 -200 385 -68 121 -136
243 -152 271 -17 31 -37 54 -51 58 -28 7 -695 5 -762 -3z"/>
<path d="M4536 4169 c-65 -110 -124 -203 -130 -205 -16 -6 -177 -12 -348 -13
-98 -1 -148 -5 -148 -12 0 -10 181 -347 301 -560 l49 -86 63 -7 c73 -7 238 8
323 29 102 26 196 79 256 144 71 76 98 134 98 210 0 64 -10 95 -72 216 -32 62
-199 376 -247 464 -4 8 -12 16 -17 18 -5 2 -63 -87 -128 -198z"/>
<path d="M3635 3362 c-38 -69 -87 -158 -108 -197 -21 -38 -49 -88 -61 -110
-13 -22 -42 -76 -66 -120 -23 -44 -51 -96 -62 -116 l-20 -36 152 -269 c223
-394 234 -414 242 -414 11 0 20 78 18 158 -2 42 -2 85 -1 95 1 16 17 17 194
17 245 0 319 16 411 87 83 64 150 143 200 238 64 123 187 346 211 385 39 63
157 291 153 295 -3 3 -27 -9 -54 -27 -158 -100 -208 -108 -726 -108 l-398 0 0
125 c0 69 -3 125 -7 125 -5 0 -39 -58 -78 -128z"/>
<path d="M1943 3376 c9 -13 65 -111 125 -218 283 -502 368 -645 403 -680 21
-20 66 -50 101 -67 111 -53 179 -61 548 -61 181 0 330 4 330 9 0 4 -43 84 -96
177 -53 93 -105 185 -115 206 l-19 38 36 72 c20 39 71 136 115 215 43 80 79
149 79 154 0 5 -238 9 -603 9 -526 0 -610 2 -658 16 -80 24 -146 60 -199 110
-52 49 -71 57 -47 20z"/>
</g>
</svg>
